<svg baseProfile="tiny" xmlns="http://www.w3.org/2000/svg" viewBox="0 0 597 50" overflow="visible" xml:space="preserve"><g fill="#606060"><path d="M89 29v11h-2.1l-5.5-6.7V40h-2.5V29H81l5.5 6.7V29H89zM90.9 34.5c0-3.3 2.6-5.7 6-5.7 1.9 0 3.5.7 4.5 2l-1.6 1.5c-.7-.9-1.7-1.3-2.8-1.3-2.1 0-3.5 1.5-3.5 3.5 0 2.1 1.5 3.5 3.5 3.5 1.1 0 2-.4 2.8-1.3l1.6 1.5c-1 1.3-2.6 2-4.6 2-3.4 0-5.9-2.4-5.9-5.7zM103.2 29h2.6v11h-2.6V29zM107.8 34.6h4.5v2h-4.5v-2zM113.8 34.5c0-3.3 2.6-5.7 6-5.7 1.9 0 3.5.7 4.5 2l-1.6 1.5c-.7-.9-1.7-1.3-2.8-1.3-2.1 0-3.5 1.5-3.5 3.5 0 2.1 1.5 3.5 3.5 3.5 1.1 0 2-.4 2.8-1.3l1.6 1.5c-1 1.3-2.6 2-4.6 2-3.3 0-5.9-2.4-5.9-5.7zM125.1 34.5c0-3.3 2.6-5.7 6-5.7 3.5 0 6 2.4 6 5.7 0 3.3-2.6 5.7-6 5.7s-6-2.4-6-5.7zm9.5 0c0-2.1-1.5-3.5-3.5-3.5s-3.5 1.4-3.5 3.5 1.5 3.5 3.5 3.5c2.1 0 3.5-1.4 3.5-3.5zM149.3 29v11h-2.1l-5.5-6.7V40h-2.5V29h2.1l5.5 6.7V29h2.5zM162 29v11h-2.1l-5.5-6.7V40h-2.5V29h2.1l5.5 6.7V29h2.5zM173.2 38v2h-8.6V29h8.3v2h-5.8v2.4h5.1v2h-5.1V38h6.1zM174.5 34.5c0-3.3 2.6-5.7 6-5.7 1.9 0 3.5.7 4.5 2l-1.6 1.5c-.7-.9-1.7-1.3-2.8-1.3-2.1 0-3.5 1.5-3.5 3.5 0 2.1 1.5 3.5 3.5 3.5 1.1 0 2-.4 2.8-1.3l1.6 1.5c-1 1.3-2.6 2-4.6 2-3.3 0-5.9-2.4-5.9-5.7zM189 31.1h-3.5V29h9.6v2.1h-3.5v9H189v-9z"/></g><g fill="#BB0E3D"><path d="M84.9 10.4h1.9v8.7h-1.9l-4.1-5.4v5.4h-1.9v-8.7h1.8L85 16v-5.6zM95.2 19.1l-.8-1.9h-3.6l-.8 1.9h-2.1l3.8-8.7h1.9l3.8 8.7h-2.2zM92.6 13l-1.1 2.5h2.2L92.6 13zM101.3 12.1v7h-1.9v-7h-2.5v-1.7h6.9v1.7h-2.5zM105.2 10.4h1.9v8.7h-1.9v-8.7zM116.6 17.9c-.9.9-2 1.3-3.2 1.3s-2.4-.4-3.2-1.3c-.9-.9-1.3-1.9-1.3-3.2s.4-2.3 1.3-3.2c.9-.9 2-1.3 3.2-1.3s2.4.4 3.2 1.3c.9.9 1.3 1.9 1.3 3.2s-.5 2.3-1.3 3.2zm-.7-3.2c0-.8-.2-1.4-.7-2-.5-.5-1.1-.8-1.8-.8s-1.3.3-1.8.8-.7 1.2-.7 2 .2 1.4.7 2c.5.5 1.1.8 1.8.8s1.3-.3 1.8-.8c.5-.6.7-1.3.7-2zM125.6 10.4h1.9v8.7h-1.9l-4.1-5.4v5.4h-1.9v-8.7h1.8l4.3 5.6v-5.6zM135.9 19.1l-.8-1.9h-3.6l-.8 1.9h-2.1l3.8-8.7h1.9l3.8 8.7h-2.2zm-2.6-6.1-1.1 2.5h2.2l-1.1-2.5zM138.9 19.1v-8.7h1.9v7h3.7v1.7h-5.6zM153.3 17.3c1 0 1.7-.4 2.3-1.1l1.2 1.3c-1 1.1-2.1 1.7-3.5 1.7-1.3 0-2.4-.4-3.3-1.3-.9-.8-1.3-1.9-1.3-3.2 0-1.3.4-2.4 1.3-3.2.9-.9 2-1.3 3.2-1.3 1.4 0 2.6.5 3.6 1.6l-1.2 1.4c-.6-.8-1.4-1.1-2.3-1.1-.7 0-1.4.2-1.9.7-.5.5-.8 1.1-.8 1.9s.2 1.5.7 1.9c.7.5 1.3.7 2 .7zM164.5 19.1l-.8-1.9h-3.6l-.8 1.9h-2.1l3.8-8.7h1.9l3.8 8.7h-2.2zm-2.6-6.1-1.1 2.5h2.2l-1.1-2.5zM173.7 10.4h1.9v8.7h-1.9l-4.1-5.4v5.4h-1.9v-8.7h1.8l4.3 5.6v-5.6zM181.7 17.3c1 0 1.7-.4 2.3-1.1l1.2 1.3c-1 1.1-2.1 1.7-3.5 1.7s-2.4-.4-3.3-1.3c-.9-.8-1.3-1.9-1.3-3.2 0-1.3.4-2.4 1.3-3.2.9-.9 2-1.3 3.2-1.3 1.4 0 2.6.5 3.6 1.6l-1.2 1.4c-.6-.8-1.4-1.1-2.3-1.1-.7 0-1.4.2-1.9.7-.5.5-.8 1.1-.8 1.9s.2 1.5.7 1.9c.8.5 1.3.7 2 .7zM193.1 10.4v1.7h-4.3v1.8h3.9v1.7h-3.9v1.8h4.5v1.7h-6.4v-8.7h6.2zM202 13.3c0 1.4-.6 2.3-1.7 2.7l2.2 3.1h-2.4l-1.9-2.8h-1.3v2.8H195v-8.7h3.3c1.4 0 2.3.2 2.9.7.5.4.8 1.1.8 2.2zm-2.3 1c.2-.2.4-.6.4-1 0-.5-.1-.8-.4-1-.2-.2-.7-.3-1.3-.3h-1.5v2.6h1.4c.7 0 1.2-.1 1.4-.3zM207.3 10.4h1.9v8.7h-1.9v-8.7zM217.5 10.4h1.9v8.7h-1.9l-4.1-5.4v5.4h-1.9v-8.7h1.8l4.3 5.6v-5.6zM223.6 12.1c-.2.2-.3.4-.3.6s.1.5.3.6c.2.1.8.3 1.6.5s1.5.5 1.9.9c.5.4.7 1 .7 1.8s-.3 1.4-.9 1.9c-.6.5-1.4.7-2.3.7-1.4 0-2.6-.5-3.7-1.5l1.2-1.4c.9.8 1.8 1.2 2.6 1.2.4 0 .6-.1.8-.2.2-.2.3-.4.3-.6 0-.3-.1-.5-.3-.6-.2-.2-.6-.3-1.3-.5-1-.2-1.8-.6-2.2-.9s-.7-1-.7-1.8.3-1.5.9-1.9c.6-.4 1.3-.7 2.2-.7.6 0 1.2.1 1.7.3.6.2 1.1.5 1.5.8l-1 1.4c-.8-.6-1.5-.9-2.3-.9-.3.1-.5.2-.7.3zM233.1 12.1v7h-1.9v-7h-2.5v-1.7h6.9v1.7h-2.5zM237 10.4h1.9v8.7H237v-8.7zM244.7 12.1v7h-1.9v-7h-2.5v-1.7h6.9v1.7h-2.5zM250.9 16.8c.3.4.8.6 1.3.6s1-.2 1.3-.6c.3-.4.5-1 .5-1.6v-4.8h1.9v4.9c0 1.3-.3 2.2-1 2.9-.7.7-1.6 1-2.7 1s-2-.3-2.7-1-1.1-1.6-1.1-2.9v-4.9h1.9v4.8c.1.7.3 1.2.6 1.6zM261.6 12.1v7h-1.9v-7h-2.5v-1.7h6.9v1.7h-2.5zM271.8 10.4v1.7h-4.3v1.8h3.9v1.7h-3.9v1.8h4.5v1.7h-6.4v-8.7h6.2z"/></g><path fill="#BA1F40" d="M57.7 6c-.9-1.3-2.4-2.2-3.9-2.2h-3.6l12 21.2-12 21.2h3.6c1.7 0 3.2-.9 3.9-2.2l10.5-19L57.7 6z"/><path fill="#606061" d="M58.9 25 47.2 3.8H4.7C2 3.8.1 5.9.1 8.4v33.3c0 2.5 2 4.6 4.6 4.6h42.5L58.9 25z"/><path fill="#FFF" d="M25.2 15.6h3.2v18.8h-3.2zM18.9 15.6v13.7l-8.7-13.7h-3v18.9h3V20.6l8.7 13.9H22V15.6zM43.2 15.6v7.8h-8.7v-7.8h-3.1v18.9h3.1v-7.9h8.7v7.9h3.2V15.6z"/></svg>