<svg baseProfile="tiny" xmlns="http://www.w3.org/2000/svg" viewBox="0 0 288 38" overflow="visible" xml:space="preserve"><g fill="#606060"><path d="M67.7 21.9v8.4h-1.6l-4.2-5.1v5.1H60v-8.4h1.6l4.2 5.1v-5.1h1.9zM69.2 26.1c0-2.5 1.9-4.3 4.6-4.3 1.5 0 2.7.5 3.5 1.5L76 24.4c-.6-.6-1.3-1-2.1-1-1.6 0-2.7 1.1-2.7 2.7s1.1 2.7 2.7 2.7c.8 0 1.5-.3 2.1-1l1.2 1.2c-.8 1-2 1.5-3.5 1.5-2.6-.1-4.5-1.9-4.5-4.4zM78.5 21.9h1.9v8.4h-1.9v-8.4zM82.1 26.1h3.4v1.5h-3.4v-1.5zM86.6 26.1c0-2.5 1.9-4.3 4.6-4.3 1.5 0 2.7.5 3.5 1.5l-1.2 1.2c-.6-.6-1.3-1-2.1-1-1.6 0-2.7 1.1-2.7 2.7s1.1 2.7 2.7 2.7c.8 0 1.5-.3 2.1-1l1.2 1.2c-.8 1-2 1.5-3.5 1.5-2.7-.2-4.6-2-4.6-4.5zM95.2 26.1c0-2.5 1.9-4.3 4.6-4.3 2.6 0 4.6 1.8 4.6 4.3s-2 4.3-4.6 4.3c-2.6 0-4.6-1.8-4.6-4.3zm7.2 0c0-1.6-1.1-2.7-2.6-2.7s-2.6 1.1-2.6 2.7 1.1 2.7 2.6 2.7 2.6-1.1 2.6-2.7zM113.6 21.9v8.4H112l-4.2-5.1v5.1h-1.9v-8.4h1.6l4.2 5.1v-5.1h1.9zM123.3 21.9v8.4h-1.6l-4.2-5.1v5.1h-1.9v-8.4h1.6l4.2 5.1v-5.1h1.9zM131.8 28.7v1.6h-6.5v-8.4h6.3v1.6h-4.4v1.8h3.9v1.5h-3.9v1.9h4.6zM132.8 26.1c0-2.5 1.9-4.3 4.6-4.3 1.5 0 2.7.5 3.5 1.5l-1.2 1.2c-.6-.6-1.3-1-2.1-1-1.6 0-2.7 1.1-2.7 2.7s1.1 2.7 2.7 2.7c.8 0 1.5-.3 2.1-1l1.2 1.2c-.8 1-2 1.5-3.5 1.5-2.7-.2-4.6-2-4.6-4.5zM143.7 23.5H141v-1.6h7.3v1.6h-2.7v6.8h-1.9v-6.8z"/></g><g fill="#BB0E3D"><path d="M64.6 7.7h1.5v6.6h-1.5l-3.1-4.1v4.1H60V7.7h1.4l3.2 4.3V7.7zM72.4 14.3l-.6-1.4H69l-.6 1.4h-1.6l2.9-6.6h1.4l2.9 6.6h-1.6zm-1.9-4.6-.8 1.9h1.7l-.9-1.9zM77.1 9v5.3h-1.5V9h-1.9V7.7H79V9h-1.9zM80 7.7h1.5v6.6H80V7.7zM88.7 13.4c-.7.7-1.5 1-2.5 1s-1.8-.3-2.5-1-1-1.5-1-2.4.3-1.8 1-2.4c.7-.7 1.5-1 2.5-1s1.8.3 2.5 1 1 1.5 1 2.4-.3 1.8-1 2.4zm-.5-2.4c0-.6-.2-1.1-.6-1.5-.4-.4-.8-.6-1.4-.6s-1 .2-1.4.6c-.4.4-.6.9-.6 1.5s.2 1.1.6 1.5c.4.4.8.6 1.4.6s1-.2 1.4-.6c.4-.4.6-.9.6-1.5zM95.6 7.7H97v6.6h-1.5l-3.1-4.1v4.1H91V7.7h1.4l3.2 4.3V7.7zM103.4 14.3l-.6-1.4H100l-.6 1.4h-1.6l2.9-6.6h1.4l2.9 6.6h-1.6zm-2-4.6-.8 1.9h1.7l-.9-1.9zM105.7 14.3V7.7h1.5V13h2.8v1.3h-4.3zM116.6 13c.7 0 1.3-.3 1.8-.9l.9 1c-.8.8-1.6 1.3-2.7 1.3-1 0-1.9-.3-2.5-1-.7-.6-1-1.5-1-2.4 0-1 .3-1.8 1-2.5s1.5-1 2.5-1c1.1 0 2 .4 2.7 1.2l-.9 1c-.5-.6-1-.9-1.7-.9-.6 0-1 .2-1.4.5-.4.4-.6.8-.6 1.5 0 .6.2 1.1.6 1.5.3.5.8.7 1.3.7zM125.2 14.3l-.6-1.4h-2.8l-.6 1.4h-1.6l2.9-6.6h1.4l2.9 6.6h-1.6zm-2-4.6-.8 1.9h1.7l-.9-1.9zM132.1 7.7h1.5v6.6h-1.5l-3.1-4.1v4.1h-1.5V7.7h1.4l3.2 4.3V7.7zM138.2 13c.7 0 1.3-.3 1.8-.9l.9 1c-.8.8-1.6 1.3-2.7 1.3s-1.9-.3-2.5-1c-.7-.6-1-1.5-1-2.4 0-1 .3-1.8 1-2.5s1.5-1 2.5-1c1.1 0 2 .4 2.7 1.2l-.9 1c-.5-.6-1-.9-1.7-.9-.6 0-1 .2-1.4.5-.4.4-.6.8-.6 1.5 0 .6.2 1.1.6 1.5.4.5.8.7 1.3.7zM146.9 7.7V9h-3.3v1.4h3v1.3h-3V13h3.4v1.3h-4.9V7.7h4.8zM153.7 9.9c0 1.1-.4 1.7-1.3 2.1l1.7 2.4h-1.8l-1.5-2.1h-1v2.1h-1.5V7.7h2.5c1 0 1.8.2 2.2.5s.7 1 .7 1.7zm-1.8.8c.2-.2.3-.4.3-.8s-.1-.6-.3-.7c-.2-.1-.5-.2-1-.2h-1.1v2h1.1c.5 0 .8-.1 1-.3zM157.7 7.7h1.5v6.6h-1.5V7.7zM165.4 7.7h1.5v6.6h-1.5l-3.1-4.1v4.1h-1.5V7.7h1.4l3.2 4.3V7.7zM170 9.1c-.1.1-.2.3-.2.5s.1.3.3.5c.2.1.6.2 1.2.4s1.1.4 1.5.7c.3.3.5.8.5 1.4 0 .6-.2 1.1-.7 1.4-.4.4-1 .6-1.8.6-1 0-2-.4-2.8-1.2l.9-1.1c.7.6 1.4.9 2 .9.3 0 .5-.1.6-.2.2-.1.2-.3.2-.5s-.1-.4-.2-.5c-.2-.1-.5-.2-1-.4-.8-.2-1.3-.4-1.7-.7-.4-.3-.5-.8-.5-1.4s.2-1.1.7-1.5c.5-.3 1-.5 1.7-.5.4 0 .9.1 1.3.2l1.2.6-.7 1.1c-.6-.4-1.2-.7-1.8-.7-.3.2-.5.2-.7.4zM177.3 9v5.3h-1.5V9h-1.9V7.7h5.2V9h-1.8zM180.2 7.7h1.5v6.6h-1.5V7.7zM186.1 9v5.3h-1.5V9h-1.9V7.7h5.2V9h-1.8zM190.8 12.6c.2.3.6.5 1 .5s.7-.2 1-.5c.2-.3.4-.7.4-1.3V7.7h1.5v3.7c0 1-.3 1.7-.8 2.2-.5.5-1.2.8-2 .8s-1.5-.3-2-.8-.8-1.3-.8-2.2V7.7h1.5v3.6c-.2.6 0 1 .2 1.3zM198.9 9v5.3h-1.5V9h-1.9V7.7h5.2V9h-1.8zM206.7 7.7V9h-3.3v1.4h3v1.3h-3V13h3.4v1.3h-4.9V7.7h4.8z"/></g><path fill="#606061" d="m45.1 19-9-16.1H3.6C1.7 2.9.1 4.4.1 6.4v25.4c0 1.9 1.5 3.5 3.5 3.5H36L45.1 19z"/><path fill="#BA1F40" d="M44.2 4.5c-.6-1-1.8-1.7-3-1.7h-2.7L47.6 19l-9.1 16.2h2.7c1.2 0 2.4-.6 3-1.7l8-14.5-8-14.5z"/><path fill="#FFF" d="M19.3 11.8h2.4v14.4h-2.4zM14.5 11.8v10.5L8 11.8H5.6v14.4H8V15.7l6.5 10.5h2.4V11.8zM33.1 11.8v6h-6.6v-6h-2.4v14.4h2.4v-6h6.6v6h2.4V11.8z"/></svg>